<svg width="29" height="25" viewBox="0 0 29 25" fill="none" xmlns="http://www.w3.org/2000/svg">
<path d="M26.6215 0.916794H18.6215C17.8453 0.916794 17.0797 1.09752 16.3855 1.44466C15.6912 1.7918 15.0873 2.29581 14.6215 2.91679C14.1558 2.29581 13.5519 1.7918 12.8576 1.44466C12.1633 1.09752 11.3978 0.916794 10.6215 0.916794H2.62152C2.09109 0.916794 1.58238 1.12751 1.20731 1.50258C0.832238 1.87765 0.621525 2.38636 0.621525 2.91679V18.9168C0.621525 19.4472 0.832238 19.9559 1.20731 20.331C1.58238 20.7061 2.09109 20.9168 2.62152 20.9168H10.6215C11.4172 20.9168 12.1802 21.2329 12.7428 21.7955C13.3055 22.3581 13.6215 23.1211 13.6215 23.9168C13.6215 24.182 13.7269 24.4364 13.9144 24.6239C14.102 24.8114 14.3563 24.9168 14.6215 24.9168C14.8867 24.9168 15.1411 24.8114 15.3286 24.6239C15.5162 24.4364 15.6215 24.182 15.6215 23.9168C15.6215 23.1211 15.9376 22.3581 16.5002 21.7955C17.0628 21.2329 17.8259 20.9168 18.6215 20.9168H26.6215C27.152 20.9168 27.6607 20.7061 28.0357 20.331C28.4108 19.9559 28.6215 19.4472 28.6215 18.9168V2.91679C28.6215 2.38636 28.4108 1.87765 28.0357 1.50258C27.6607 1.12751 27.152 0.916794 26.6215 0.916794ZM10.6215 18.9168H2.62152V2.91679H10.6215C11.4172 2.91679 12.1802 3.23286 12.7428 3.79547C13.3055 4.35808 13.6215 5.12114 13.6215 5.91679V19.9168C12.7569 19.2661 11.7037 18.9151 10.6215 18.9168ZM26.6215 18.9168H18.6215C17.5394 18.9151 16.4862 19.2661 15.6215 19.9168V5.91679C15.6215 5.12114 15.9376 4.35808 16.5002 3.79547C17.0628 3.23286 17.8259 2.91679 18.6215 2.91679H26.6215V18.9168ZM18.6215 5.91679H23.6215C23.8867 5.91679 24.1411 6.02215 24.3286 6.20969C24.5162 6.39722 24.6215 6.65158 24.6215 6.91679C24.6215 7.18201 24.5162 7.43636 24.3286 7.6239C24.1411 7.81144 23.8867 7.91679 23.6215 7.91679H18.6215C18.3563 7.91679 18.102 7.81144 17.9144 7.6239C17.7269 7.43636 17.6215 7.18201 17.6215 6.91679C17.6215 6.65158 17.7269 6.39722 17.9144 6.20969C18.102 6.02215 18.3563 5.91679 18.6215 5.91679ZM24.6215 10.9168C24.6215 11.182 24.5162 11.4364 24.3286 11.6239C24.1411 11.8114 23.8867 11.9168 23.6215 11.9168H18.6215C18.3563 11.9168 18.102 11.8114 17.9144 11.6239C17.7269 11.4364 17.6215 11.182 17.6215 10.9168C17.6215 10.6516 17.7269 10.3972 17.9144 10.2097C18.102 10.0222 18.3563 9.91679 18.6215 9.91679H23.6215C23.8867 9.91679 24.1411 10.0222 24.3286 10.2097C24.5162 10.3972 24.6215 10.6516 24.6215 10.9168ZM24.6215 14.9168C24.6215 15.182 24.5162 15.4364 24.3286 15.6239C24.1411 15.8114 23.8867 15.9168 23.6215 15.9168H18.6215C18.3563 15.9168 18.102 15.8114 17.9144 15.6239C17.7269 15.4364 17.6215 15.182 17.6215 14.9168C17.6215 14.6516 17.7269 14.3972 17.9144 14.2097C18.102 14.0221 18.3563 13.9168 18.6215 13.9168H23.6215C23.8867 13.9168 24.1411 14.0221 24.3286 14.2097C24.5162 14.3972 24.6215 14.6516 24.6215 14.9168Z" fill="#C81354"/>
</svg>
